<svg preserveAspectRatio="none" width="100%" height="100%" overflow="visible" style="display: block;" viewBox="0 0 21 21" fill="none" xmlns="http://www.w3.org/2000/svg">
<g id="Group 378">
<path id="Vector" d="M14.0526 6.51572C14.1176 6.42491 14.3074 6.35758 14.4764 6.43955V6.44053C14.5508 6.47704 14.5808 6.52476 14.5907 6.55576C14.5996 6.58391 14.5986 6.6155 14.5731 6.65342L9.28601 14.4796V14.4806C9.2446 14.5417 9.1555 14.5946 9.03112 14.5968C8.90548 14.5989 8.81077 14.5473 8.76647 14.4884L6.43151 11.3946C6.40219 11.3554 6.40013 11.3224 6.4071 11.295C6.41281 11.2726 6.42867 11.2408 6.46569 11.2101L6.51061 11.1798C6.67407 11.0908 6.87446 11.1487 6.94714 11.2452V11.2462L8.66979 13.5284L9.01061 13.9796L9.32604 13.5108L14.0507 6.5206L14.0526 6.51572Z" fill="var(--fill-0, #21A373)" stroke="var(--stroke-0, #21A373)" stroke-width="0.807354"/>
<circle id="Ellipse 1" cx="10.5" cy="10.5" r="10.0435" stroke="var(--stroke-0, #21A373)" stroke-width="0.913043"/>
</g>
</svg>
